<svg width="367" height="36" viewBox="0 0 367 36" fill="none" xmlns="http://www.w3.org/2000/svg">
<path d="M180.52 31H182.032V8.71601L192.112 31H193.804L203.884 8.71601V30.964H205.396V5.08001H203.884L192.976 29.164L181.96 5.08001H180.52V31Z" fill="white"/>
<path d="M217.998 31H219.51V5.08001H217.998V31Z" fill="white"/>
<path d="M239.459 31H240.971V6.59201H250.475V5.08001H229.955V6.59201H239.459V31Z" fill="white"/>
<path d="M270.738 31.54C273.762 31.54 276.198 30.754 278.046 29.182C279.894 27.598 281.142 25.492 281.79 22.864L280.206 22.504C279.63 24.784 278.55 26.608 276.966 27.976C275.394 29.344 273.318 30.028 270.738 30.028C268.518 30.028 266.658 29.518 265.158 28.498C263.67 27.466 262.554 26.05 261.81 24.25C261.066 22.45 260.706 20.38 260.73 18.04C260.754 15.7 261.138 13.63 261.882 11.83C262.626 10.018 263.73 8.60201 265.194 7.58201C266.67 6.56201 268.518 6.05201 270.738 6.05201C273.318 6.05201 275.394 6.73601 276.966 8.10401C278.55 9.46001 279.63 11.284 280.206 13.576L281.79 13.216C281.142 10.588 279.894 8.48801 278.046 6.91601C276.198 5.33201 273.762 4.54001 270.738 4.54001C268.158 4.54001 266.004 5.11601 264.276 6.26801C262.56 7.42001 261.27 9.01001 260.406 11.038C259.542 13.066 259.11 15.4 259.11 18.04C259.11 20.68 259.542 23.014 260.406 25.042C261.27 27.07 262.56 28.66 264.276 29.812C266.004 30.964 268.158 31.54 270.738 31.54Z" fill="white"/>
<path d="M292.957 31H294.469V18.796H310.165V31H311.677V5.08001H310.165V17.284H294.469V5.08001H292.957V31Z" fill="white"/>
<path d="M323.922 31H339.762V29.488H323.922V18.796H337.602V17.284H323.922V6.59201H339.762V5.08001H323.922V31Z" fill="white"/>
<path d="M351.627 31H366.027V29.488H353.139V5.08001H351.627V31Z" fill="white"/>
<path d="M8.388 30.46H12.726V8.608H21.114V4.54H0V8.608H8.388V30.46Z" fill="white"/>
<path d="M31.192 30.46H35.53V21.406H41.686L46.078 30.46H50.992L46.204 20.632C47.68 19.972 48.778 18.97 49.498 17.626C50.218 16.282 50.578 14.734 50.578 12.982C50.578 10.834 50.038 9.004 48.958 7.492C47.89 5.968 46.228 5.032 43.972 4.684C43.636 4.624 43.27 4.588 42.874 4.576C42.478 4.552 42.154 4.54 41.902 4.54H31.192V17.356V30.46ZM31.192 17.356V8.644L41.722 8.608C41.962 8.608 42.232 8.62 42.532 8.644C42.832 8.668 43.108 8.71 43.36 8.77C44.08 8.95 44.644 9.274 45.052 9.742C45.472 10.198 45.766 10.714 45.934 11.29C46.114 11.866 46.204 12.43 46.204 12.982C46.204 13.534 46.114 14.098 45.934 14.674C45.766 15.25 45.472 15.766 45.052 16.222C44.644 16.678 44.08 16.996 43.36 17.176C43.108 17.248 42.832 17.296 42.532 17.32C42.232 17.344 41.962 17.356 41.722 17.356H31.192Z" fill="white"/>
<path d="M73.1197 31C75.7117 31 77.9317 30.436 79.7797 29.308C81.6397 28.168 83.0617 26.584 84.0457 24.556C85.0417 22.528 85.5397 20.176 85.5397 17.5C85.5397 14.812 85.0417 12.46 84.0457 10.444C83.0617 8.416 81.6397 6.838 79.7797 5.71C77.9317 4.57 75.7117 4 73.1197 4C70.5397 4 68.3197 4.57 66.4597 5.71C64.6117 6.838 63.1897 8.416 62.1937 10.444C61.2097 12.46 60.7177 14.812 60.7177 17.5C60.7177 20.176 61.2097 22.528 62.1937 24.556C63.1897 26.584 64.6117 28.168 66.4597 29.308C68.3197 30.436 70.5397 31 73.1197 31ZM73.1197 26.914C70.5157 26.878 68.5597 26.008 67.2517 24.304C65.9437 22.6 65.2957 20.332 65.3077 17.5C65.3197 15.604 65.6137 13.948 66.1897 12.532C66.7657 11.116 67.6297 10.018 68.7817 9.238C69.9337 8.446 71.3797 8.062 73.1197 8.086C75.7357 8.122 77.6917 8.992 78.9877 10.696C80.2957 12.4 80.9497 14.668 80.9497 17.5C80.9497 19.384 80.6557 21.04 80.0677 22.468C79.4917 23.884 78.6217 24.982 77.4577 25.762C76.3057 26.542 74.8597 26.926 73.1197 26.914Z" fill="white"/>
<path d="M101.533 30.46H105.925V19.84L114.727 4.54H109.669L103.729 14.872L97.7707 4.54H92.7127L101.533 19.84V30.46Z" fill="white"/>
<path d="M133.5 18H147V31.5H133.5V18Z" fill="white"/>
<path d="M147 4.5H160.5V18H147V4.5Z" fill="white"/>
</svg>
