<svg width="539" height="602" viewBox="0 0 539 602" fill="none" xmlns="http://www.w3.org/2000/svg">
<path d="M196.411 88.0229C195.441 87.9623 194.468 88.0221 193.513 88.2008C191.073 89.2812 189.065 94.0855 187.705 102.182C185.341 116.087 185.417 134.338 187.921 147.9L188.556 151.23L185.913 148.917C182.989 146.349 178.007 142.867 175.656 141.799C171.833 140.126 167.598 139.631 163.492 140.375C161.962 140.658 160.423 140.892 158.878 141.075C154.557 141.583 151.595 143.045 148.278 146.336C145.958 148.612 144.177 151.378 143.067 154.433C142.432 156.199 142.343 156.835 142.343 159.771C142.368 162.44 142.508 163.609 143.105 165.846C144.033 169.278 147.122 177.057 147.732 177.413C148.748 178.048 149.498 177.438 150.68 174.871C152.015 172.036 154.404 169.227 156.146 168.452C157.315 167.905 159.196 167.766 159.45 168.185C159.641 168.49 156.908 172.57 153.909 176.497C151.392 179.802 150.629 181.391 150.185 184.251C149.193 190.733 152.6 197.901 157.963 200.507C161.192 202.083 162.831 202.362 168.068 202.362C172.77 202.337 172.745 202.35 175.935 201.32C177.885 200.679 179.856 200.107 181.845 199.604L184.54 198.969L184.769 199.553C185.048 200.278 184.819 200.913 183.358 203.621C180.676 208.501 180.269 209.022 177.943 210.204C172.351 213.115 164.547 214.399 160.645 213.064C158.92 212.575 157.167 212.193 155.396 211.92C141.211 209.709 140.36 209.48 138.402 207.675C136.153 205.603 134.208 201.269 132.492 194.33C131.908 192.042 131.348 190.389 131.272 190.618L129.747 195.855C126.315 207.98 125.743 209.2 121.32 213.814C119.982 215.162 118.698 216.561 117.469 218.008C116.948 218.746 116.833 220.08 117.266 220.36C117.655 220.769 117.996 221.221 118.282 221.707C119.198 223.232 125.985 229.88 128.641 231.9C131.857 234.366 133.636 235.319 138.898 237.391C148.075 241.014 150.286 241.433 164.039 242.221C169.072 242.539 173.393 241.7 175.859 239.895C176.444 239.488 177.765 238.84 178.833 238.484C179.913 238.154 181.807 237.442 183.078 236.946C184.324 236.425 185.455 236.006 185.569 236.006C185.696 236.006 186.205 237.9 186.713 240.2C187.222 242.526 187.73 244.598 187.844 244.776C187.933 244.979 188.175 242.742 188.353 239.819C188.671 234.544 188.683 234.481 189.433 233.845L190.183 233.21L190.374 233.972C190.501 234.404 190.78 235.624 191.009 236.692C191.632 239.272 192.865 242.285 194.06 244.191C195.127 245.831 198.623 250.19 198.8 250.038C198.769 248.51 198.684 246.984 198.546 245.462C198.356 242.386 198.33 240.886 198.521 240.696C198.712 240.505 199.271 241.153 200.211 242.704C206.909 253.635 218.31 264.591 230.55 271.873C242.625 279.067 261.486 286.185 279.42 290.341C283.653 291.307 290.986 292.731 291.787 292.731C292.041 292.731 293.16 293.303 294.329 294.002C302.756 299.162 313.42 301.844 320.982 300.763C327.286 299.861 335.039 296.01 338.827 291.866C339.71 290.895 340.845 290.187 342.106 289.82C346.838 287.915 351.382 285.575 355.68 282.83C361.273 279.118 365.086 275.458 367.882 271.098C369.015 269.522 370.282 268.046 371.67 266.688C377.848 260.392 382.69 252.913 385.905 244.699C387.227 241.23 388.676 235.497 389.197 231.481C389.724 225.704 389.626 219.888 388.904 214.132L388.421 211.526L392.667 207.484C408.249 192.563 417.744 177.552 421.099 162.478C422.281 157.14 422.37 151.243 421.264 149.12C420.324 147.29 418.976 147.557 411.35 151.128C400.42 156.276 394.357 158.119 386.185 158.843C382.88 159.123 377.364 158.881 375.597 158.335C374.897 157.833 374.294 157.209 373.818 156.492C370.297 151.649 363.395 144.621 358.019 140.248C352.045 135.469 343.504 130.449 337.175 128.047L334.76 127.157L336.412 126.229C339.132 124.704 344.394 122.543 346.796 121.984C348.042 121.704 351.321 121.132 354.143 120.688L359.277 119.95L353.049 119.035C340.187 117.18 331.264 116.404 321.999 116.354C318.516 116.354 315.695 116.277 315.695 116.226C315.695 116.163 316.292 115.426 317.004 114.536C320.029 110.939 322.189 106.63 322.978 102.627C323.181 101.483 323.448 98.9916 323.562 97.0851L323.766 93.6153L321.694 96.3861C318.918 100.264 315.303 103.466 311.119 105.753C306.01 108.715 301.332 110.011 292.029 111.066C272.201 113.278 258.296 115.299 252.068 116.875L249.463 117.536L248.192 116.646C246.925 115.768 245.667 114.878 244.417 113.977C236.692 108.203 228.334 103.329 219.505 99.4492C214.954 97.3971 210.569 94.9962 206.388 92.268C200.669 88.7092 199.271 88.1372 196.411 88.0229ZM195.343 91.0987C195.598 91.0097 195.89 91.0478 196.36 91.1241C196.919 91.2131 198.089 91.5944 198.902 91.9248C199.754 92.2553 202.27 93.6661 204.482 95.0515C210.379 98.7374 213.582 100.479 218.717 102.766C226.07 106.002 233.065 109.998 239.587 114.689C247.823 120.446 250.352 122.823 256.212 130.449C258.588 133.55 262.44 137.77 262.872 137.77C263.126 137.77 260.965 133.499 258.5 129.203C256.99 126.559 255.273 124.039 253.365 121.666C252.144 120.192 252.017 120.319 255.347 119.633L257.356 119.226L259.567 121.285C260.749 122.429 262.783 124.03 264.016 124.869C266.494 126.496 268.464 128.428 270.218 130.843C271.769 132.978 272.125 133.703 273.65 138.215C275.162 142.587 275.645 143.731 276.166 143.934C277.183 144.265 277.819 143.21 278.403 140.248C279.624 134.148 279.242 130.716 276.395 122.607C275.707 120.703 275.063 118.783 274.463 116.849C274.463 116.62 285.991 115.032 287.491 115.057C287.796 115.057 288.038 115.489 288.292 116.379C288.864 118.756 289.665 120.192 292.435 123.941C295.257 127.754 297.341 131.517 298.091 134.173C298.345 134.999 298.917 137.986 299.388 140.782C300.468 147.302 301.764 152.463 303.175 155.615C304.726 159.174 305.158 161.118 305.285 165.579C305.463 170.791 306.175 173.129 307.573 172.85C308.577 172.659 310.179 166.367 310.674 160.521C311.284 153.657 311.627 140.312 311.31 135.889C310.878 130.157 310.878 120.421 311.31 120.167C311.488 120.065 313.941 119.912 316.762 119.823L321.948 119.696L323.117 121.044C324.833 123.039 325.38 124.335 325.38 126.382C325.38 128.542 326.651 133.601 328.252 137.948C331.43 146.527 333.4 153.683 334.01 158.945C334.352 160.788 334.261 162.685 333.743 164.486C332.599 169.494 332.205 172.875 332.18 178.01C332.141 183.323 332.396 184.835 333.412 185.382C335.522 186.487 338.026 182.611 338.624 177.222C338.751 175.976 339.831 171.21 340.988 166.647C342.322 161.22 343.186 157.013 343.492 154.598C343.86 151.611 345.017 143.794 346.097 137.401L346.275 136.334L349.58 138.571C354.562 141.875 354.346 141.621 355.286 144.951C356.43 148.98 357.358 152.793 358.21 156.86C358.909 160.267 358.934 160.546 358.972 172.354C358.972 183.03 359.036 184.492 359.455 185.407C359.786 186.132 360.116 186.449 360.523 186.449C361.438 186.449 363.421 184.378 364.501 182.306C365.887 179.7 366.268 178.493 366.459 176.294C366.675 173.879 366.967 172.303 368.149 167.511C368.835 164.741 369.166 162.656 369.318 160.165L369.509 156.708L370.755 158.36C373.36 161.754 372.826 161.411 376.512 161.83C381.164 162.326 388.815 162.084 392.717 161.309C399.034 160.038 405.275 157.801 413.346 153.937C416.015 152.666 418.303 151.598 418.43 151.598C418.608 151.598 418.646 152.997 418.544 155.399C418.125 165.694 412.571 178.684 403.724 190.046C398.183 197.189 387.837 207.929 387.532 206.887C387.481 206.684 386.884 205.057 386.248 203.277C384.799 199.248 379.829 189.195 379.435 189.551C379.385 189.614 379.944 191.686 380.706 194.177C381.469 196.668 382.168 198.981 382.232 199.312C382.283 199.617 382.448 200.43 382.638 201.091C382.804 201.727 382.893 202.362 382.842 202.413C382.537 202.718 376.055 204.193 372.267 204.828C361.209 206.709 350.228 206.48 340.746 204.256C331.493 202.095 323.41 198.409 306.607 188.788C286.271 177.095 280.45 174.642 268.858 172.875C265.617 172.367 263.647 172.24 257.851 172.24C247.277 172.201 239.168 173.307 223.407 176.841C211.917 179.383 205.41 180.094 202.143 179.154C200.656 178.709 200.478 178.569 199.347 176.79C198.673 175.773 197.885 174.871 197.568 174.782C197.135 174.654 196.869 173.892 196.042 170.397C194.606 164.27 194.644 164.677 195.051 165.147C195.432 165.656 195.496 166.126 193.805 159.339C191.901 152.069 190.533 144.668 189.713 137.198C189.268 132.724 189.268 116.913 189.713 112.159C190.755 101.356 192.509 93.933 194.504 91.7977C194.86 91.4164 195.089 91.1877 195.343 91.0987ZM200.046 103.466C200.11 103.618 200.466 104.037 201.126 104.826C201.953 105.83 206.655 110.672 211.599 115.604C216.531 120.535 221.259 125.517 222.149 126.725C228.3 135.025 233.054 148.434 231.135 152.12C229.953 154.445 227.487 155.043 225.161 153.556C223.661 152.615 221.577 149.946 220.395 147.43C219.644 145.683 219.028 143.881 218.552 142.041C218.031 140.083 217.599 138.609 217.535 138.761L216.62 143.934C215.705 149.4 215.311 155.145 215.705 157.331C216.061 159.212 215.794 159.618 214.904 158.576C214.383 157.941 214.078 157.051 213.709 155.005C213.351 153.04 212.978 151.079 212.591 149.12C211.879 145.409 211.955 145.269 211.193 152.984C211.035 154.928 210.806 156.865 210.506 158.792C209.934 161.461 208.015 163.749 206.439 163.749C205.168 163.749 203.592 162.86 203.046 161.843L202.474 160.864L202.664 161.83C202.919 163.177 204.24 166.05 204.85 166.533C205.575 167.13 207.964 167.016 209.299 166.317C210.688 165.583 211.803 164.419 212.476 162.999C212.947 162.084 213.176 161.855 213.544 161.983C213.798 162.11 214.688 162.262 215.552 162.326C216.989 162.402 217.205 162.351 218.031 161.601L218.971 160.762L218.882 156.466C218.819 153.543 218.882 152.145 219.073 152.145C219.238 152.145 219.378 152.259 219.378 152.374C219.378 152.971 222.619 156.098 223.916 156.759C225.179 157.417 226.594 157.727 228.017 157.658C229.44 157.589 230.818 157.142 232.012 156.365C235.38 153.899 235.736 148.662 233.054 140.553C231.23 135.557 228.873 130.772 226.025 126.28C222.517 121.018 214.713 113.824 205.003 106.935C203.096 105.588 201.088 104.126 200.554 103.732C200.122 103.415 199.957 103.313 200.046 103.466ZM318.669 104.991C318.599 105.458 318.448 105.909 318.224 106.325C317.146 108.486 315.824 110.516 314.284 112.375L313.381 113.443L311.894 111.981C311.349 111.485 310.859 110.931 310.433 110.329C310.433 110.227 311.5 109.528 312.848 108.753C314.195 107.978 316.025 106.783 316.915 106.084C317.452 105.645 318.041 105.273 318.669 104.978V104.991ZM164.458 142.917C166.626 142.68 168.817 142.748 170.966 143.121C171.957 143.337 173.444 143.807 174.27 144.188C175.757 144.849 180.396 147.747 181.197 148.561C181.413 148.777 182.366 149.552 183.282 150.277C185.061 151.713 187.578 154.471 188.938 156.454C189.992 157.941 191.276 162.377 191.022 163.648C190.831 164.817 189.141 166.66 186.192 168.986C182.722 171.731 181.744 173.218 181.744 175.76C181.744 178.112 183.116 181.442 185.175 184.2C185.887 185.115 185.887 185.191 185.417 185.699C185.036 186.132 184.705 186.208 183.599 186.068C181.744 185.814 179.278 184.848 178.464 184.111C177.88 183.526 177.778 183.17 177.638 180.171L177.511 176.904L176.431 179.116C175.122 181.785 175.007 183.856 176.037 185.344C176.723 186.36 178.935 187.695 180.867 188.267L182.163 188.674L179.952 188.521C177.167 188.364 174.552 187.134 172.656 185.089C170.66 183.107 170.025 181.81 170.241 180.285C170.495 178.76 172.834 174.337 174.715 171.795C175.579 170.651 176.456 169.354 176.672 168.91L177.104 168.071L176.037 168.96C175.301 169.558 174.608 170.208 173.965 170.905L171.512 173.727C167.394 178.404 166.606 180.819 168.207 184.009C169.783 187.085 174.664 190.567 178.02 191C180.79 191.368 180.917 191.432 180.917 192.143C180.917 193.287 181.705 194.431 183.002 195.194C184.311 195.956 184.578 196.389 183.765 196.465C183.165 196.491 182.577 196.638 182.036 196.897C177.652 198.541 173.086 199.65 168.436 200.202C159.031 200.799 151.977 194.533 152.498 186.043C152.663 183.119 153.388 181.467 156.095 177.908C161.433 170.892 166.199 162.567 167.915 157.216C169.745 151.471 168.474 147.277 163.975 144.239C162.475 143.223 162.412 143.35 164.458 142.917ZM156.349 144.659C156.896 144.659 158.027 144.786 158.827 144.964C161.751 145.599 164.42 147.468 165.284 149.578C166.034 151.319 165.907 151.484 164.191 151.357C163.229 151.184 162.237 151.399 161.433 151.954C160.102 152.861 158.97 154.029 158.103 155.386C158.001 155.577 158.637 155.386 159.526 154.967C161.649 153.988 164.293 153.899 165.182 154.814C166.047 155.666 165.78 156.619 163.34 161.512L161.306 165.681L160.391 165.465C159.485 165.344 158.572 165.293 157.658 165.313C156.499 165.255 155.349 165.543 154.354 166.139C152.325 167.466 150.601 169.207 149.295 171.248C149.103 171.652 148.845 172.022 148.532 172.341C148.227 172.341 146.168 166.368 145.609 163.902C144.63 159.415 145.139 155.615 147.363 151.878C149.486 148.281 153.972 144.684 156.349 144.659ZM192.115 167.639C192.534 167.333 192.725 168.096 193.933 171.985L195.076 175.608L193.856 176.841C193.172 177.524 192.631 178.337 192.265 179.231C191.898 180.126 191.713 181.085 191.721 182.052V183.374L190.132 183.628L188.543 183.844L187.45 182.446C185.951 180.488 184.705 177.768 184.565 176.053C184.464 174.718 184.514 174.578 185.519 173.472C186.129 172.799 187.527 171.54 188.671 170.676C189.802 169.787 191.086 168.706 191.568 168.236C191.823 167.969 191.975 167.727 192.115 167.639ZM250.924 175.875C255.625 175.644 260.335 175.678 265.032 175.976C266.799 176.142 269.735 176.561 271.629 176.917C280.564 178.658 286.563 181.34 304.217 191.444C329.815 206.112 339.895 209.543 357.473 209.543C365.265 209.653 373.035 208.669 380.554 206.62C382.206 206.188 383.579 205.858 383.604 205.896C384.113 206.493 385.79 213.941 386.299 217.716C386.731 221.021 386.731 228.774 386.299 231.697C385.724 235.277 384.818 238.796 383.592 242.208C380.49 250.343 374.949 258.96 369.191 264.578L367.526 266.218L365.34 265.328L362.391 264.159C361.946 263.981 361.629 263.637 361.629 263.383C361.629 263.027 361.591 263.027 361.349 263.383C361.12 263.714 361.069 263.739 361.069 263.434C361.069 263.243 360.498 262.532 359.798 261.909C358.351 260.468 356.993 258.94 355.731 257.333C352.325 253.113 349.465 250.088 346.923 248.017C345.347 246.746 344.928 246.212 344.457 244.915C343.524 242.352 342.801 239.717 342.297 237.035L342.043 235.485L344.165 236.527C345.309 237.099 347.508 238.078 349.033 238.688C358.222 242.373 364.196 243.174 368.124 241.268C371.657 239.552 376.347 232.371 378.724 225.075L379.563 222.571L381.151 222.228C382.066 222.025 383.312 221.783 383.986 221.707C384.621 221.618 385.219 221.453 385.257 221.3C385.473 220.995 382.003 218.949 379.588 217.983C374.44 215.873 368.098 215.047 363.306 215.797C360.18 216.305 355.96 218.085 353.049 220.042C349.046 222.749 344.737 228.227 342.805 233.07L342.043 234.938L341.826 232.676C341.634 228.892 341.86 225.098 342.5 221.364C342.754 219.839 342.881 218.644 342.78 218.695C342.5 218.898 340.95 223.181 340.339 225.482C338.793 231.211 338.736 237.239 340.174 242.996L340.39 243.797L339.323 243.25C336.59 241.891 332.79 240.886 328.036 240.276C325.702 239.903 323.328 239.86 320.982 240.149C318.833 240.369 316.701 240.734 314.602 241.242C313 241.687 310.191 242.412 308.399 242.882C300.557 244.957 292.476 245.991 284.364 245.958C272.188 245.932 265.249 244.598 257.038 240.67C245.167 234.951 232.889 224.91 218.679 209.149C213.229 203.286 207.529 197.658 201.597 192.283C197.72 188.826 196.513 187.174 195.547 184.212C194.873 182.115 194.975 180.781 195.928 179.637L196.589 178.925L197.301 180.018C198.635 182.014 201.749 183.145 205.994 183.145C209.934 183.145 215.209 182.255 227.957 179.421C234.164 178.017 240.444 176.956 246.768 176.243L250.924 175.862V175.875ZM191.314 185.916C191.924 185.966 192.357 186.157 192.534 186.5C192.789 186.92 192.751 187.771 192.395 189.957C191.95 192.665 191.95 192.881 192.395 193.872L192.839 194.94L191.67 197.431C191.077 198.642 190.514 199.866 189.98 201.104L189.509 202.337L188.81 201.701C187.565 200.532 187.006 198.956 187.006 196.656C187.006 194.685 186.942 194.495 186.281 193.974C185.975 193.696 185.61 193.492 185.213 193.376C184.808 193.277 184.433 193.081 184.12 192.804L183.409 192.207L183.993 191.165C184.883 189.589 187.87 186.767 189.115 186.335C189.819 186.056 190.57 185.918 191.327 185.928L191.314 185.916ZM258.398 189.83C256.618 189.83 254.839 189.957 253.568 190.212C250.238 190.885 246.679 192.245 241.188 194.94C236.791 197.126 233.372 199.109 232.012 200.329C231.872 200.443 232.685 200.303 233.791 200.036C234.935 199.757 237.642 199.248 239.854 198.918C242.065 198.613 244.201 198.308 244.62 198.219C245.256 198.092 245.599 198.422 247.696 201.218C252.818 208.056 259.338 215.644 264.181 220.461C267.702 223.944 269.811 225.571 271.286 225.85C271.756 225.927 273.396 226.27 275.01 226.562C285.966 228.723 295.346 229.397 298.32 228.215C301.218 227.096 306.709 223.042 311.666 218.479C313.191 217.068 315.199 215.301 316.114 214.539C317.258 213.636 317.55 213.268 317.08 213.395C315.428 213.878 313.089 214.157 309.454 214.335C305.171 214.526 301.866 214.17 299.477 213.293C297.354 212.48 296.579 211.869 288.419 204.447C285.527 201.723 282.498 199.148 279.344 196.732C276.548 194.685 272.481 192.69 270.574 192.41C269.539 192.149 268.521 191.826 267.524 191.444C266.098 190.932 264.642 190.508 263.164 190.173C261.588 189.92 259.994 189.805 258.398 189.83ZM197.631 193.389L198.47 194.126C198.94 194.508 201.813 197.151 204.825 200.011C207.875 202.833 212.756 207.84 215.756 211.107C227.538 224.02 236.168 231.824 245.662 238.166C258.398 246.682 269.875 249.86 286.207 249.453C296.299 249.237 303.862 247.991 314.157 244.915C323.041 242.246 333.4 243.39 340.848 247.915C344.877 250.381 347.927 253.228 352.414 258.769C356.773 264.158 357.981 265.239 361.514 267.006C363.167 267.87 364.717 268.607 364.946 268.696C365.556 268.887 364.247 270.691 361.349 273.729C356.252 279.042 348.258 283.961 339.691 287.075C338.348 287.462 337.161 288.263 336.298 289.362C333.857 291.981 330.324 294.256 325.85 296.023C318.224 299.048 309.746 298.005 299.311 292.794C295.816 291.053 295.041 290.545 293.846 289.235C293.02 288.267 292.272 287.234 291.609 286.147L290.745 284.558L290.923 285.956C290.999 286.693 291.228 287.736 291.393 288.231C291.52 288.74 291.622 289.223 291.52 289.299C291.228 289.604 273.79 285.804 273.294 285.308C273.167 285.181 273.358 284.406 273.675 283.516C274.387 281.381 274.654 278.762 274.184 278.203C273.663 277.593 272.188 277.695 270.663 278.457C269.414 279.047 268.064 279.392 266.685 279.474C265.249 279.639 262.999 280.046 261.702 280.44L259.288 281.101L257.673 280.567C254.331 279.398 246.196 276.042 246.285 275.839C247.006 275.161 247.78 274.54 248.598 273.983C251.42 271.912 254.178 269.344 254.699 268.353C255.208 267.336 255.208 265.76 254.674 265.302C254.343 265.048 253.682 265.112 251.268 265.684C249.66 266.074 248.03 266.367 246.387 266.561C244.072 266.803 241.791 267.302 239.587 268.048C237.629 268.784 235.514 268.998 233.448 268.671C231.414 268.455 231.122 268.327 228.466 266.561C224.709 263.935 221.102 261.1 217.662 258.07L216.366 256.876H219.035C221.488 256.85 222.111 256.749 225.873 255.541C231.592 253.711 234.185 251.97 234.007 250.025C233.88 248.97 233.791 248.932 227.817 248.195C225.584 247.906 223.369 247.49 221.183 246.949C219.632 246.515 218.063 246.15 216.48 245.856C214.561 245.5 213.048 244.941 209.96 243.505C208.104 242.64 206.24 241.792 204.367 240.963C202.588 240.276 202.067 239.565 199.881 235.154C199.522 234.414 199.141 233.685 198.737 232.968C198.584 232.777 196.449 235.256 196.17 236.006C195.992 236.387 195.763 237.251 195.572 237.938L195.216 239.183L194.708 237.518C193.862 234.671 193.417 231.719 193.386 228.748C193.386 226.537 193.437 226.283 193.882 226.422C194.136 226.499 195.432 226.804 196.729 227.109C198.063 227.414 200.288 228.075 201.686 228.583C204.279 229.473 204.355 229.473 209.413 229.473C213.684 229.473 214.98 229.346 217.141 228.837C222.67 227.566 223.013 226.88 219.226 224.135C217.816 223.095 216.434 222.019 215.082 220.906C213.203 219.255 211.053 217.939 208.727 217.017C207.676 216.599 206.663 216.088 205.702 215.492C204.367 214.602 201.571 211.679 199.474 208.997C198.698 207.975 197.821 207.034 196.856 206.188C195.592 205.272 194.238 204.489 192.814 203.849C192.433 203.748 193.678 200.774 195.89 196.656L197.631 193.389ZM258.665 196.528C260.571 196.554 262.351 196.744 262.605 196.884C262.986 197.1 262.859 197.367 261.702 198.918C259.351 202.07 258.144 206.633 258.55 211.221C258.766 213.751 258.894 213.763 256.466 210.954C254.178 208.285 252.27 205.313 250.797 202.121C248.726 197.799 248.751 197.927 250.162 197.545C252.925 196.741 255.802 196.397 258.677 196.528H258.665ZM266.367 198.092C266.443 198.092 267.333 198.537 268.324 199.083C269.328 199.642 270.93 200.634 271.883 201.32L273.663 202.566L272.773 203.506C269.532 207.243 269.176 213.255 271.807 219.864C272.353 221.224 272.595 222.152 272.404 222.152C271.87 222.152 268.312 220.347 267.257 219.572C265.16 217.996 262.529 215.072 261.728 213.471C261.085 212.336 260.797 211.034 260.902 209.734C260.927 205.311 262.338 201.574 264.842 199.312C265.312 198.86 265.823 198.451 266.367 198.092ZM131.425 201.346C131.526 201.46 131.997 202.489 132.467 203.659C134.094 207.586 136.026 210.065 138.428 211.285C140.271 212.213 144.058 213.128 148.405 213.687C154.76 214.513 157.493 215.009 159.628 215.695C163.314 216.839 169.58 216.458 174.626 214.729C175.503 214.424 176.202 214.272 176.202 214.399C176.202 214.907 173.139 217.411 171.334 218.339C165.449 221.453 156.489 222.533 150.286 221.008C148.888 220.652 147.821 220.449 147.871 220.563C148.126 220.944 155.713 223.27 158.255 223.715C160.721 224.135 163.873 224.135 165.704 223.69C166.212 223.55 166.136 223.69 165.284 224.236C160.838 226.98 155.891 228.812 150.731 229.625C148.721 229.95 146.721 230.331 144.732 230.769C141.656 231.456 140.436 231.379 136.814 230.172C132.365 228.698 128.425 226.041 123.583 221.338L120.723 218.606L123.087 216.191C127.535 211.526 128.171 210.509 130.179 204.371C130.764 202.591 131.323 201.218 131.425 201.32V201.346ZM186.561 203.557C186.815 203.366 187.12 203.544 188.175 204.396C188.607 204.765 188.607 204.879 188.238 205.743C187.1 209.124 186.167 212.571 185.442 216.064C184.781 219.165 184.68 220.131 184.642 225.088C184.642 228.126 184.769 231.392 184.87 232.333L185.086 234.036L183.498 234.836C182.608 235.307 181.337 235.828 180.651 236.031C179.972 236.222 179.319 236.495 178.706 236.845C177.943 237.404 176.774 237.798 176.774 237.518C176.889 237.186 177.061 236.877 177.282 236.603C177.612 236.115 177.885 235.59 178.096 235.04C178.401 234.176 179.977 230.324 181.4 226.905C181.71 226.272 181.965 225.612 182.163 224.935C182.138 224.935 181.4 226.333 180.574 228.062C178.604 232.04 175.999 235.968 174.423 237.239C171.792 239.399 168.754 239.882 160.823 239.349C152.053 238.777 149.257 238.23 143.461 236.12C138.873 234.468 133.331 232.129 133.331 231.862C133.331 231.722 134.539 232.078 136.038 232.599C139.978 233.998 141.707 234.048 146.194 232.981C148.189 232.472 151.252 231.799 153.019 231.405C154.848 231.031 156.655 230.56 158.433 229.994C163.162 228.418 169.059 224.91 172.834 221.478C176.316 218.237 181.451 211.717 184.947 205.972C185.684 204.752 186.421 203.671 186.561 203.557ZM279.395 207.497C279.509 207.497 280.323 208.26 281.238 209.149C282.534 210.471 283.055 210.802 283.716 210.802C284.352 210.802 284.86 211.094 285.661 211.946C286.767 213.051 286.779 213.09 286.741 215.199C286.741 217.106 286.64 217.487 285.724 219.241C283.907 222.698 284.136 222.546 280.119 222.698C278.356 222.752 276.591 222.71 274.832 222.571L273.091 222.368L275.035 220.017C276.942 217.64 278.874 214.259 278.874 213.318C278.874 213.013 278.365 212.467 277.641 211.997C276.942 211.577 276.395 211.145 276.395 211.005C276.395 210.878 277.082 210.802 277.92 210.802H279.522L279.344 209.149C279.268 208.247 279.293 207.497 279.395 207.497ZM288.953 216.903L289.703 217.665C290.122 218.097 291.33 219.724 292.41 221.326C294.291 224.122 294.355 224.249 293.744 224.452C293.172 224.707 285.826 224.757 285.61 224.529C285.862 223.874 286.205 223.258 286.627 222.698C287.362 221.502 287.951 220.222 288.381 218.885L288.953 216.915V216.903ZM365.391 219.127C365.582 219.127 365.772 219.381 365.887 219.712C366.141 220.69 366.09 224.033 365.81 224.211C365.683 224.287 365.467 225.05 365.391 225.85C364.628 231.697 360.892 236.324 356.087 237.289L355.134 237.467L355.769 236.527C356.913 234.836 358.045 232.167 358.261 230.807C358.426 229.486 358.222 226.003 357.879 225.469C357.816 225.342 357.193 225.215 356.557 225.215H355.388L356.786 224.313C360.815 221.707 365.111 219.127 365.391 219.127ZM368.225 221.504C368.479 221.224 370.894 221.504 373.233 222.05C375.953 222.686 375.953 222.686 375.343 224.44C373.017 231.023 369.331 236.819 366.535 238.255C364.871 238.941 363.048 239.148 361.273 238.853L360.205 238.637L361.845 237.467C365.632 234.671 367.996 229.435 367.996 223.741C367.996 222.635 368.085 221.618 368.225 221.504ZM350.94 231.316C351.194 231.443 351.397 232.205 351.88 233.794C352.185 234.786 352.516 235.802 352.643 236.057C352.795 236.438 352.465 236.374 350.724 235.65C349.554 235.18 348.614 234.697 348.614 234.557C348.614 234.43 349.122 233.54 349.758 232.599C350.393 231.659 350.698 231.176 350.94 231.316ZM324.681 248.792C324.541 248.792 323.727 248.894 322.901 249.008C319.648 249.453 316.445 250.788 314.208 252.694L313.089 253.622L314.131 255.516C316.152 259.227 319.368 262.671 322.444 264.54C324.223 265.595 324.185 265.506 322.99 269.713C321.795 273.831 321.846 273.78 319.546 274.352C317.893 274.771 316.495 274.86 312.517 274.86H307.522L304.7 273.882C298.981 271.848 295.473 269.179 292.207 264.273C289.792 260.714 289.194 260.079 285.635 257.537C282.166 255.109 281.886 254.613 283.246 253.507L283.996 252.91L283.004 252.885C281.534 252.882 280.097 253.316 278.873 254.13C277.649 254.944 276.694 256.103 276.128 257.46C275.518 259.113 275.404 261.184 275.849 262.036C276.294 262.849 276.484 262.71 277.196 261.07C277.59 260.148 278.141 259.301 278.823 258.566C280.018 257.371 280.412 257.409 282.598 258.795C285.724 260.816 287.707 262.799 289.995 266.268C291.215 268.111 292.613 270.056 293.084 270.59C294.189 271.886 296.515 273.818 297.697 274.454C298.206 274.733 299.604 275.788 300.748 276.818C301.892 277.834 303.544 279.029 304.472 279.449C306.378 280.338 310.534 281.635 314.157 282.524C318.694 283.605 323.982 283.16 327.362 281.482L328.633 280.847L330.21 281.381C335.865 283.313 342.284 282.27 345.906 278.775C349.91 274.924 351.397 269.675 349.592 265.747C348.944 264.247 346.898 261.744 346.351 261.744C346.224 261.744 346.389 262.455 346.694 263.307C347.419 265.341 347.482 269.077 346.822 270.958C346.103 272.992 344.949 274.844 343.441 276.386C342.654 277.043 341.787 277.598 340.861 278.038C339.462 278.699 339.043 278.75 336.031 278.75C332.955 278.724 332.535 278.661 330.54 277.86C329.19 277.296 327.886 276.629 326.638 275.864L324.897 274.708L325.532 272.992C325.888 272.051 326.422 270.069 326.791 268.594L327.413 265.925L329.066 265.29C334.328 263.409 337.836 260.46 339.272 256.71L339.818 255.236L338.611 254.143C336.395 252.336 333.884 250.926 331.188 249.974C329.409 249.402 325.596 248.678 324.681 248.792Z" fill="#112288"/>
<path d="M304.614 368.961L235.962 369.112C235.325 369.079 234.789 368.844 234.353 368.408C233.917 367.972 233.682 367.436 233.649 366.799C233.682 361.199 234.747 355.994 236.842 351.182C238.938 346.371 241.704 342.364 245.141 339.162C248.578 335.96 252.492 333.47 256.885 331.693C261.277 329.916 265.77 329.044 270.364 329.078C274.924 329.145 279.383 330.084 283.742 331.894C288.101 333.705 291.999 336.194 295.436 339.363C298.872 342.532 301.639 346.505 303.734 351.283C305.83 356.061 306.878 361.199 306.878 366.698C306.878 367.302 306.651 367.83 306.199 368.282C305.746 368.735 305.218 368.961 304.614 368.961ZM235.409 342.205C238.091 334.09 242.66 327.711 249.114 323.068C255.569 318.424 262.652 316.135 270.364 316.202C278.076 316.269 285.15 318.65 291.588 323.344C298.026 328.038 302.586 334.409 305.268 342.456C302.619 339.874 300.105 337.594 297.724 335.616C295.343 333.638 292.653 331.685 289.652 329.757C286.651 327.829 283.516 326.337 280.247 325.28C276.977 324.224 273.717 323.679 270.464 323.646C266.977 323.646 263.607 324.115 260.355 325.054C257.103 325.993 253.993 327.41 251.025 329.304C248.058 331.198 245.409 333.126 243.079 335.088C240.749 337.049 238.192 339.422 235.409 342.205Z" fill="#FFC115"/>
<path d="M304.348 373.347L235.696 373.197C235.059 373.23 234.522 373.465 234.086 373.901C233.65 374.337 233.416 374.873 233.382 375.51C233.416 381.11 234.48 386.315 236.576 391.127C238.671 395.938 241.438 399.945 244.874 403.147C248.311 406.349 252.226 408.839 256.618 410.616C261.011 412.393 265.504 413.265 270.097 413.231C274.657 413.164 279.117 412.225 283.475 410.415C287.834 408.604 291.732 406.114 295.169 402.946C298.606 399.777 301.372 395.804 303.468 391.026C305.563 386.248 306.611 381.11 306.611 375.611C306.611 375.007 306.385 374.479 305.932 374.026C305.479 373.574 304.951 373.347 304.348 373.347ZM235.142 400.104C237.825 408.218 242.393 414.597 248.848 419.241C255.302 423.885 262.385 426.173 270.097 426.106C277.809 426.039 284.884 423.659 291.321 418.965C297.759 414.27 302.319 407.9 305.002 399.853C302.353 402.434 299.838 404.714 297.457 406.693C295.077 408.671 292.386 410.624 289.385 412.552C286.384 414.48 283.249 415.972 279.98 417.028C276.711 418.084 273.45 418.629 270.198 418.663C266.711 418.663 263.341 418.193 260.089 417.255C256.836 416.316 253.726 414.899 250.759 413.005C247.791 411.11 245.143 409.182 242.812 407.221C240.482 405.259 237.925 402.887 235.142 400.104Z" fill="#FFC115"/>
<path d="M78.9833 336.179C80.7921 336.179 82.2659 336.714 83.4047 337.786C84.5435 338.858 85.113 340.265 85.113 342.007C85.113 343.748 84.5435 345.155 83.4047 346.227C82.2659 347.232 80.7921 347.734 78.9833 347.734H63.2071V400.389C63.2071 402.13 62.5707 403.604 61.2979 404.81C60.0251 405.949 58.4508 406.518 56.5751 406.518C54.6994 406.518 53.1586 405.949 51.9528 404.81C50.747 403.604 50.144 402.13 50.144 400.389V347.734H34.3678C32.5591 347.734 31.0853 347.198 29.9465 346.127C28.8076 345.055 28.2382 343.648 28.2382 341.906C28.2382 340.231 28.8076 338.858 29.9465 337.786C31.1523 336.714 32.6261 336.179 34.3678 336.179H78.9833ZM155.872 398.68C156.207 399.551 156.374 400.355 156.374 401.092C156.374 402.834 155.805 404.274 154.666 405.413C153.527 406.485 152.221 407.021 150.747 407.021C149.541 407.021 148.436 406.652 147.431 405.915C146.493 405.178 145.756 404.174 145.22 402.901L139.995 390.742H110.051L104.825 403.001C104.356 404.274 103.62 405.279 102.615 406.016C101.677 406.686 100.638 407.021 99.4996 407.021C97.7579 407.021 96.4181 406.552 95.4802 405.614C94.6093 404.676 94.1739 403.403 94.1739 401.795C94.1739 401.193 94.2744 400.556 94.4754 399.886L119.496 339.796C120.032 338.456 120.836 337.418 121.908 336.681C122.98 335.944 124.186 335.643 125.525 335.777C126.731 335.777 127.837 336.145 128.841 336.882C129.913 337.552 130.684 338.523 131.153 339.796L155.872 398.68ZM135.071 379.186L124.922 355.673L114.974 379.186H135.071ZM223.678 339.595C225.755 340.667 226.793 342.375 226.793 344.72C226.793 346.127 226.291 347.5 225.286 348.84C224.214 350.246 222.841 350.95 221.166 350.95C220.027 350.95 218.889 350.648 217.75 350.046C214.467 348.505 210.917 347.734 207.098 347.734C202.409 347.734 198.323 348.739 194.839 350.749C191.356 352.692 188.676 355.472 186.8 359.089C184.924 362.64 183.987 366.726 183.987 371.348C183.987 379.253 186.097 385.249 190.317 389.335C194.605 393.422 200.198 395.465 207.098 395.465C211.185 395.465 214.735 394.695 217.75 393.154C218.956 392.618 220.027 392.35 220.965 392.35C222.707 392.35 224.181 393.087 225.387 394.561C226.391 395.833 226.894 397.207 226.894 398.68C226.894 399.752 226.626 400.724 226.09 401.595C225.554 402.465 224.784 403.135 223.779 403.604C218.554 406.217 212.993 407.523 207.098 407.523C200.533 407.523 194.504 406.15 189.011 403.403C183.518 400.59 179.13 396.47 175.847 391.044C172.565 385.617 170.924 379.052 170.924 371.348C170.924 364.515 172.464 358.386 175.546 352.96C178.694 347.533 183.015 343.313 188.508 340.298C194.002 337.217 200.198 335.676 207.098 335.676C213.06 335.676 218.587 336.982 223.678 339.595Z" fill="#112288"/>
<path d="M365.852 339.595C367.929 340.667 368.967 342.375 368.967 344.72C368.967 346.127 368.465 347.5 367.46 348.84C366.388 350.246 365.015 350.95 363.34 350.95C362.201 350.95 361.062 350.648 359.924 350.046C356.641 348.505 353.091 347.734 349.272 347.734C344.583 347.734 340.496 348.739 337.013 350.749C333.529 352.692 330.85 355.472 328.974 359.089C327.098 362.64 326.16 366.726 326.16 371.348C326.16 379.253 328.271 385.249 332.491 389.335C336.778 393.422 342.372 395.465 349.272 395.465C353.359 395.465 356.909 394.695 359.924 393.154C361.129 392.618 362.201 392.35 363.139 392.35C364.881 392.35 366.355 393.087 367.56 394.561C368.565 395.833 369.068 397.207 369.068 398.68C369.068 399.752 368.8 400.724 368.264 401.595C367.728 402.465 366.958 403.135 365.953 403.604C360.727 406.217 355.167 407.523 349.272 407.523C342.707 407.523 336.678 406.15 331.185 403.403C325.692 400.59 321.304 396.47 318.021 391.044C314.739 385.617 313.097 379.052 313.097 371.348C313.097 364.515 314.638 358.386 317.72 352.96C320.868 347.533 325.189 343.313 330.682 340.298C336.176 337.217 342.372 335.676 349.272 335.676C355.234 335.676 360.761 336.982 365.852 339.595ZM444.829 398.68C445.164 399.551 445.331 400.355 445.331 401.092C445.331 402.834 444.762 404.274 443.623 405.413C442.484 406.485 441.178 407.021 439.704 407.021C438.498 407.021 437.393 406.652 436.388 405.915C435.45 405.178 434.713 404.174 434.178 402.901L428.952 390.742H399.008L393.782 403.001C393.313 404.274 392.577 405.279 391.572 406.016C390.634 406.686 389.596 407.021 388.457 407.021C386.715 407.021 385.375 406.552 384.437 405.614C383.566 404.676 383.131 403.403 383.131 401.795C383.131 401.193 383.231 400.556 383.432 399.886L408.453 339.796C408.989 338.456 409.793 337.418 410.865 336.681C411.937 335.944 413.143 335.643 414.482 335.777C415.688 335.777 416.794 336.145 417.798 336.882C418.87 337.552 419.641 338.523 420.11 339.796L444.829 398.68ZM424.029 379.186L413.879 355.673L403.931 379.186H424.029ZM505.107 336.179C506.916 336.179 508.389 336.714 509.528 337.786C510.667 338.858 511.236 340.265 511.236 342.007C511.236 343.748 510.667 345.155 509.528 346.227C508.389 347.232 506.916 347.734 505.107 347.734H489.331V400.389C489.331 402.13 488.694 403.604 487.421 404.81C486.149 405.949 484.574 406.518 482.699 406.518C480.823 406.518 479.282 405.949 478.076 404.81C476.87 403.604 476.268 402.13 476.268 400.389V347.734H460.491C458.683 347.734 457.209 347.198 456.07 346.127C454.931 345.055 454.362 343.648 454.362 341.906C454.362 340.231 454.931 338.858 456.07 337.786C457.276 336.714 458.75 336.179 460.491 336.179H505.107Z" fill="#112288"/>
</svg>
